<mxfile host="app.diagrams.net" modified="2022-10-01T17:00:47.362Z" agent="5.0 (Windows NT 10.0; Win64; x64) AppleWebKit/537.36 (KHTML, like Gecko) Chrome/105.0.0.0 Safari/537.36" etag="wY6Dz61CjxAYILOmwDVV" version="20.4.0" type="github">
  <diagram id="CaNH6JlhKty08d_ahgAv" name="‫עמוד-1‬">
    <mxGraphModel dx="1038" dy="547" grid="1" gridSize="10" guides="1" tooltips="1" connect="1" arrows="1" fold="1" page="1" pageScale="1" pageWidth="827" pageHeight="1169" math="0" shadow="0">
      <root>
        <mxCell id="0" />
        <mxCell id="1" parent="0" />
        <mxCell id="U36Yhe53MJ0Q-xMoMPm6-5" style="edgeStyle=orthogonalEdgeStyle;rounded=1;orthogonalLoop=1;jettySize=auto;html=1;startArrow=classic;startFill=1;" edge="1" parent="1" source="U36Yhe53MJ0Q-xMoMPm6-1" target="U36Yhe53MJ0Q-xMoMPm6-4">
          <mxGeometry relative="1" as="geometry">
            <mxPoint x="410" y="120" as="targetPoint" />
            <Array as="points">
              <mxPoint x="460" y="120" />
              <mxPoint x="460" y="120" />
            </Array>
          </mxGeometry>
        </mxCell>
        <mxCell id="U36Yhe53MJ0Q-xMoMPm6-14" value="stocks connction" style="edgeLabel;html=1;align=center;verticalAlign=middle;resizable=0;points=[];fontSize=15;" vertex="1" connectable="0" parent="U36Yhe53MJ0Q-xMoMPm6-5">
          <mxGeometry x="0.2149" relative="1" as="geometry">
            <mxPoint x="35" as="offset" />
          </mxGeometry>
        </mxCell>
        <mxCell id="U36Yhe53MJ0Q-xMoMPm6-6" style="edgeStyle=orthogonalEdgeStyle;rounded=0;orthogonalLoop=1;jettySize=auto;html=1;dashed=1;" edge="1" parent="1" source="U36Yhe53MJ0Q-xMoMPm6-1" target="U36Yhe53MJ0Q-xMoMPm6-4">
          <mxGeometry relative="1" as="geometry">
            <Array as="points">
              <mxPoint x="600" y="160" />
              <mxPoint x="600" y="160" />
            </Array>
          </mxGeometry>
        </mxCell>
        <mxCell id="U36Yhe53MJ0Q-xMoMPm6-16" value="HTTP&amp;nbsp;requests" style="edgeLabel;html=1;align=center;verticalAlign=middle;resizable=0;points=[];fontSize=15;" vertex="1" connectable="0" parent="U36Yhe53MJ0Q-xMoMPm6-6">
          <mxGeometry x="-0.1004" relative="1" as="geometry">
            <mxPoint as="offset" />
          </mxGeometry>
        </mxCell>
        <mxCell id="U36Yhe53MJ0Q-xMoMPm6-7" style="edgeStyle=orthogonalEdgeStyle;rounded=0;orthogonalLoop=1;jettySize=auto;html=1;" edge="1" parent="1" source="U36Yhe53MJ0Q-xMoMPm6-1" target="U36Yhe53MJ0Q-xMoMPm6-3">
          <mxGeometry relative="1" as="geometry">
            <Array as="points">
              <mxPoint x="710" y="340" />
            </Array>
          </mxGeometry>
        </mxCell>
        <mxCell id="U36Yhe53MJ0Q-xMoMPm6-1" value="" style="sketch=0;aspect=fixed;pointerEvents=1;shadow=0;dashed=0;html=1;strokeColor=none;labelPosition=center;verticalLabelPosition=bottom;verticalAlign=top;align=center;fillColor=#00188D;shape=mxgraph.mscae.enterprise.android_phone" vertex="1" parent="1">
          <mxGeometry x="670" y="70" width="60" height="100" as="geometry" />
        </mxCell>
        <mxCell id="U36Yhe53MJ0Q-xMoMPm6-2" value="" style="strokeWidth=2;html=1;shape=mxgraph.flowchart.database;whiteSpace=wrap;" vertex="1" parent="1">
          <mxGeometry x="20" y="97" width="60" height="60" as="geometry" />
        </mxCell>
        <mxCell id="U36Yhe53MJ0Q-xMoMPm6-17" style="edgeStyle=orthogonalEdgeStyle;rounded=1;orthogonalLoop=1;jettySize=auto;html=1;entryX=1;entryY=0.5;entryDx=0;entryDy=0;entryPerimeter=0;fontSize=15;startArrow=none;startFill=0;endArrow=classic;endFill=1;" edge="1" parent="1" source="U36Yhe53MJ0Q-xMoMPm6-4" target="U36Yhe53MJ0Q-xMoMPm6-2">
          <mxGeometry relative="1" as="geometry">
            <Array as="points">
              <mxPoint x="270" y="127" />
              <mxPoint x="270" y="127" />
            </Array>
          </mxGeometry>
        </mxCell>
        <mxCell id="U36Yhe53MJ0Q-xMoMPm6-4" value="" style="aspect=fixed;perimeter=ellipsePerimeter;html=1;align=center;shadow=0;dashed=0;spacingTop=3;image;image=img/lib/active_directory/generic_server.svg;" vertex="1" parent="1">
          <mxGeometry x="330" y="77.86" width="64" height="114.28" as="geometry" />
        </mxCell>
        <mxCell id="U36Yhe53MJ0Q-xMoMPm6-13" value="" style="group" vertex="1" connectable="0" parent="1">
          <mxGeometry x="490" y="310" width="150" height="90" as="geometry" />
        </mxCell>
        <mxCell id="U36Yhe53MJ0Q-xMoMPm6-3" value="&lt;br&gt;&lt;div style=&quot;text-align: start;&quot;&gt;&lt;font face=&quot;Android Euclid, Noto Sans, Noto Sans JP, Noto Sans KR, Noto Naskh Arabic, Noto Sans Thai, Noto Sans Hebrew, Noto Sans Bengali, sans-serif&quot;&gt;&lt;span style=&quot;font-size: 15px; letter-spacing: -0.5px; background-color: rgb(255, 255, 255);&quot;&gt;&lt;b&gt;&lt;br&gt;&lt;/b&gt;&lt;/span&gt;&lt;/font&gt;&lt;/div&gt;" style="strokeWidth=2;html=1;shape=mxgraph.flowchart.database;whiteSpace=wrap;" vertex="1" parent="U36Yhe53MJ0Q-xMoMPm6-13">
          <mxGeometry x="45" width="60" height="60" as="geometry" />
        </mxCell>
        <mxCell id="U36Yhe53MJ0Q-xMoMPm6-12" value="&lt;span style=&quot;font-family: &amp;quot;Android Euclid&amp;quot;, &amp;quot;Noto Sans&amp;quot;, &amp;quot;Noto Sans JP&amp;quot;, &amp;quot;Noto Sans KR&amp;quot;, &amp;quot;Noto Naskh Arabic&amp;quot;, &amp;quot;Noto Sans Thai&amp;quot;, &amp;quot;Noto Sans Hebrew&amp;quot;, &amp;quot;Noto Sans Bengali&amp;quot;, sans-serif; font-weight: 600; letter-spacing: -0.5px; text-align: start; background-color: rgb(255, 255, 255);&quot;&gt;SharedPreferences&lt;/span&gt;" style="text;html=1;align=center;verticalAlign=middle;resizable=0;points=[];autosize=1;strokeColor=none;fillColor=none;fontSize=15;" vertex="1" parent="U36Yhe53MJ0Q-xMoMPm6-13">
          <mxGeometry y="60" width="150" height="30" as="geometry" />
        </mxCell>
      </root>
    </mxGraphModel>
  </diagram>
</mxfile>
